<svg xmlns="http://www.w3.org/2000/svg" width="14.865" height="21.163" viewBox="0 0 14.865 21.163"><defs><style>.a{fill:#707070;}</style></defs><path class="a" d="M1486.29,663.492a.928.928,0,0,0-.863-.605c-3.762,0-7.525-.014-11.287.015a2.277,2.277,0,0,0-2.242,2.025,9.545,9.545,0,0,0,.106,1.726,2.537,2.537,0,0,0-.713,3.233,2.57,2.57,0,0,0-.995,2.915c-.938,0-1.843-.014-2.749,0a2.476,2.476,0,0,0-2.421,2.448,2.426,2.426,0,0,0,2.384,2.47c3.9.021,7.808.056,11.712-.013a7.27,7.27,0,0,0,6.806-5.511c.1-.391.175-.787.262-1.18Zm-1.641,5.347a15.868,15.868,0,0,1-.153,2.665,5.691,5.691,0,0,1-5.592,4.591q-5.572.009-11.143,0c-.6,0-.995-.327-1-.821a.88.88,0,0,1,.99-.847c2.414-.008,4.827,0,7.241-.006.594,0,.941-.3.95-.8a.82.82,0,0,0-.89-.823c-.752-.008-1.5,0-2.257,0-.6,0-.99-.341-.986-.835a.882.882,0,0,1,.987-.841c.736-.008,1.473,0,2.21,0,.579,0,.94-.322.935-.817s-.371-.8-.957-.8c-.471,0-.941.008-1.41,0a.843.843,0,1,1,.007-1.677c.486-.007.972,0,1.458,0a.823.823,0,0,0,.9-.807.807.807,0,0,0-.891-.813c-.266-.007-.535.015-.8-.013a.838.838,0,0,1-.778-.894.8.8,0,0,1,.846-.764q5.032-.007,10.063,0c.075,0,.26,0,.269.031S1484.672,667.417,1484.649,668.839Z" transform="translate(677.75 -1465.127) rotate(90)"/></svg>