<svg xmlns="http://www.w3.org/2000/svg" width="35.832" height="35.873" viewBox="0 0 35.832 35.873"><defs><style>.a,.b{fill:#f7bf68;}.a{stroke:rgba(0,0,0,0);}</style></defs><g transform="translate(-1859.187 -21.5)"><path class="a" d="M25.467,34.873a.2.2,0,0,1-.178-.105c-1.015-2.158-4.777-2.883-6.585-3.231l-.016,0c-.66-.127-1.91-.359-3.715-.689l.943-5.542a.185.185,0,0,1,.185-.163h5.18a9.369,9.369,0,0,0,6.972-3.021,13.273,13.273,0,0,0,3.3-7.643,9.56,9.56,0,0,0-2.308-7.653,11.435,11.435,0,0,0-8.454-3.586c-5.577,0-11.536,0-16.778-.012a.187.187,0,0,0-.187.187.193.193,0,0,0,.006.048A39.645,39.645,0,0,0,5.822,9.191a5.8,5.8,0,0,0,4.891,3.328l-.005,0c-1.249,0-2.235.769-2.931,2.285a16.851,16.851,0,0,0-1.067,3.979c-.037.21-.072.407-.105.582C6.253,21.214,5.34,26.2,4.828,29.008,2.389,28.569.6,28.248.163,28.171a.2.2,0,0,1-.163-.2V.2A.2.2,0,0,1,.2,0H34.628a.2.2,0,0,1,.2.2V28.511a.2.2,0,0,1-.144.191,39.046,39.046,0,0,0-5.824,2.035,6.022,6.022,0,0,0-3.2,3.992.2.2,0,0,1-.1.118A.205.205,0,0,1,25.467,34.873Z" transform="translate(1859.687 22)"/><path class="b" d="M-1868.706,1033.478h-2.6l.432-2.577h1.614a.124.124,0,0,0,.124-.1l.546-3.2a.127.127,0,0,0-.092-.154l-.023,0h-1.588l.367-2.265a.188.188,0,0,0-.152-.217.19.19,0,0,0-.033,0h-3.112a.191.191,0,0,0-.187.159l-.382,2.327h-2.624l.385-2.274a.187.187,0,0,0-.154-.215l-.032,0h-3.113a.188.188,0,0,0-.185.157l-.394,2.335h-3.19a.125.125,0,0,0-.124.124v0h0a3.322,3.322,0,0,0,2.748,3.271l-.44,2.64h-2.184a.125.125,0,0,0-.124.124v0h0a3.321,3.321,0,0,0,1.8,2.949l-.44,2.646a.191.191,0,0,0,.161.217l.027,0h3.113a.185.185,0,0,0,.185-.157l.389-2.333h2.621l-.379,2.274a.189.189,0,0,0,.156.217.184.184,0,0,0,.029,0h3.112a.189.189,0,0,0,.187-.157l.389-2.339h2.62a.126.126,0,0,0,.124-.1l.546-3.2a.125.125,0,0,0-.1-.144Zm-8.71,0,.424-2.577h2.622l-.432,2.577Z" transform="translate(3754.652 -996.687)"/></g></svg>