<svg xmlns="http://www.w3.org/2000/svg" width="27.283" height="27.314" viewBox="0 0 27.283 27.314"><defs><style>.a,.b{fill:#606060;}.a{stroke:rgba(0,0,0,0);}</style></defs><g transform="translate(-339.664 -6.889)"><g transform="translate(-1519.522 -14.611)"><path class="a" d="M19.216,26.314a.153.153,0,0,1-.134-.079c-.766-1.628-3.6-2.175-4.969-2.438l-.012,0c-.5-.1-1.441-.271-2.8-.52l.711-4.182a.14.14,0,0,1,.14-.123h3.909a7.069,7.069,0,0,0,5.261-2.279,10.015,10.015,0,0,0,2.491-5.767,7.213,7.213,0,0,0-1.741-5.774,8.629,8.629,0,0,0-6.379-2.706c-4.208,0-8.7,0-12.66-.009a.141.141,0,0,0-.141.141.146.146,0,0,0,0,.036,29.914,29.914,0,0,0,1.5,4.324A4.377,4.377,0,0,0,8.084,9.446l0,0a2.459,2.459,0,0,0-2.211,1.724,12.715,12.715,0,0,0-.8,3c-.028.158-.054.307-.08.439-.266,1.394-.955,5.156-1.342,7.275l-3.52-.632A.153.153,0,0,1,0,21.1V.153A.154.154,0,0,1,.154,0H26.129a.154.154,0,0,1,.153.153v21.36a.154.154,0,0,1-.109.144,29.463,29.463,0,0,0-4.395,1.536,4.544,4.544,0,0,0-2.416,3.012.153.153,0,0,1-.072.089A.155.155,0,0,1,19.216,26.314Z" transform="translate(1859.687 22)"/><path class="b" d="M-1872.27,1031.385h-1.963l.326-1.944h1.218a.094.094,0,0,0,.094-.078l.412-2.414a.1.1,0,0,0-.069-.116l-.017,0h-1.2l.277-1.709a.142.142,0,0,0-.115-.164l-.025,0h-2.349a.144.144,0,0,0-.141.12l-.289,1.755h-1.98l.29-1.716a.141.141,0,0,0-.117-.162l-.024,0h-2.349a.142.142,0,0,0-.14.118l-.3,1.762h-2.407a.094.094,0,0,0-.094.094h0a2.507,2.507,0,0,0,2.074,2.469l-.332,1.992h-1.648a.094.094,0,0,0-.094.094v0h0a2.506,2.506,0,0,0,1.355,2.225l-.332,2a.144.144,0,0,0,.121.164l.02,0h2.349a.139.139,0,0,0,.14-.118l.294-1.76h1.978l-.286,1.716a.143.143,0,0,0,.118.164l.022,0h2.349a.143.143,0,0,0,.141-.118l.293-1.765h1.977a.1.1,0,0,0,.094-.079l.412-2.415a.094.094,0,0,0-.075-.109Zm-6.573,0,.32-1.944h1.979l-.326,1.944Z" transform="translate(3751.771 -998.224)"/></g></g></svg>