<svg xmlns="http://www.w3.org/2000/svg" width="31.486" height="30" viewBox="0 0 31.486 30"><defs><style>.a{fill:#707070;}</style></defs><path class="a" d="M72.5,61.628c0-7.044-7.062-12.775-15.743-12.775S41.017,54.584,41.017,61.628c0,6.315,5.6,11.6,13.166,12.6.513.11,1.21.338,1.387.776a3.232,3.232,0,0,1,.051,1.424s-.185,1.111-.224,1.348c-.068.4-.316,1.557,1.363.849s9.066-5.338,12.369-9.14h0A11.365,11.365,0,0,0,72.5,61.628Zm-21.3,3.761a.306.306,0,0,1-.306.307H46.488a.3.3,0,0,1-.212-.086l0,0,0,0a.305.305,0,0,1-.086-.212h0V58.531a.307.307,0,0,1,.307-.307h1.1a.307.307,0,0,1,.306.307v5.448h3a.306.306,0,0,1,.306.307Zm2.662,0a.306.306,0,0,1-.307.306h-1.1a.307.307,0,0,1-.307-.306V58.53a.307.307,0,0,1,.307-.306h1.1a.306.306,0,0,1,.307.306Zm7.6,0a.306.306,0,0,1-.307.306h-1.1a.3.3,0,0,1-.078-.011h0l-.021-.007-.009,0-.015-.006-.015-.007-.009,0-.019-.011,0,0a.306.306,0,0,1-.078-.076l-3.147-4.251V65.39a.306.306,0,0,1-.307.306h-1.1a.307.307,0,0,1-.307-.306V58.53a.307.307,0,0,1,.307-.306h1.13l.016,0h.013l.017,0,.011,0,.018.006.01,0,.017.008.01,0,.016.009.009.006.016.011.008.006.016.014.006.005.018.019,0,0a.307.307,0,0,1,.024.031l3.143,4.245V58.53a.307.307,0,0,1,.307-.306h1.1a.306.306,0,0,1,.307.306Zm6.1-5.755a.306.306,0,0,1-.306.307h-3V61.1h3a.306.306,0,0,1,.306.307v1.1a.306.306,0,0,1-.306.307h-3v1.159h3a.306.306,0,0,1,.306.307v1.1a.306.306,0,0,1-.306.307H62.848a.3.3,0,0,1-.212-.086l0,0,0,0a.305.305,0,0,1-.086-.212h0V58.531h0a.3.3,0,0,1,.085-.211l0-.005,0,0a.3.3,0,0,1,.212-.087H67.26a.306.306,0,0,1,.306.307Z" transform="translate(-41.017 -48.853)"/></svg>