<svg xmlns="http://www.w3.org/2000/svg" width="14.865" height="21.163" viewBox="0 0 14.865 21.163"><path d="M14.258 21.163a.928.928 0 00.605-.863c0-3.762.014-7.525-.015-11.287a2.277 2.277 0 00-2.025-2.242 9.545 9.545 0 00-1.726.106 2.537 2.537 0 00-3.233-.713 2.57 2.57 0 00-2.915-.995c0-.938.014-1.843 0-2.749A2.476 2.476 0 002.501-.001a2.426 2.426 0 00-2.47 2.384c-.021 3.9-.056 7.808.013 11.712a7.27 7.27 0 005.511 6.806c.391.1.787.175 1.18.262zm-5.347-1.641a15.868 15.868 0 01-2.665-.153 5.691 5.691 0 01-4.591-5.592q-.009-5.572 0-11.143c0-.6.327-.995.821-1a.88.88 0 01.847.99c.008 2.414 0 4.827.006 7.241 0 .594.3.941.8.95a.82.82 0 00.823-.89c.008-.752 0-1.5 0-2.257 0-.6.341-.99.835-.986a.882.882 0 01.841.987c.008.736 0 1.473 0 2.21 0 .579.322.94.817.935s.8-.371.8-.957c0-.471-.008-.941 0-1.41a.843.843 0 111.677.007c.007.486 0 .972 0 1.458a.823.823 0 00.807.9.807.807 0 00.813-.891c.007-.266-.015-.535.013-.8a.838.838 0 01.894-.778.8.8 0 01.764.846q.007 5.032 0 10.063c0 .075 0 .26-.031.269s-2.849.024-4.271.001z" fill="#707070"/></svg>