<svg xmlns="http://www.w3.org/2000/svg" width="74" height="100" viewBox="0 0 74 100"><path fill="#FFF" d="M73.534 0a.42.42 0 01.415.42v59.823a.416.416 0 01-.301.404c-1.585.44-8.931 2.527-12.366 4.302-4.639 2.407-6.251 6.129-6.799 8.431a.417.417 0 01-.788.078c-2.163-4.572-10.155-6.096-14.018-6.835-1.567-.3-4.551-.848-8.212-1.512l1.988-11.65a.403.403 0 01.397-.332h11.028c11.84 0 20.36-9.512 21.812-22.536C68.333 15.796 56.291 6.838 43.828 6.838c-18.361 0-32.75-.024-35.622-.024a.398.398 0 00-.385.503c.527 1.929 2.512 8.815 4.212 12.108 3.522 6.824 9.926 7.03 10.378 7.03-6.718 0-7.894 10.132-8.724 14.476-.65 3.392-2.235 11.991-3.76 20.3L.346 59.515A.42.42 0 010 59.102V.419A.42.42 0 01.421 0h73.113zM55.738 31.257a.268.268 0 01.27.3l-1.16 6.763a.261.261 0 01-.26.219h-5.565l-.827 4.943a.4.4 0 01-.394.335h-6.618a.4.4 0 01-.394-.464l.812-4.811h-5.568l-.824 4.931a.4.4 0 01-.394.332h-6.618a.404.404 0 01-.397-.464l.936-5.578a7.02 7.02 0 01-3.818-6.239c0-.146.118-.265.265-.267h4.639l.932-5.574c-3.374-.593-5.834-3.51-5.836-6.92 0-.145.119-.263.265-.263h6.777l.828-4.943a.403.403 0 01.364-.294h6.617a.4.4 0 01.395.465l-.804 4.79h5.565l.825-4.928a.403.403 0 01.397-.336h6.618a.398.398 0 01.394.465l-.8 4.79h3.369a.268.268 0 01.261.3l-1.16 6.763a.261.261 0 01-.26.218h-3.432l-.902 5.467h5.502zm-18.494 0h5.568l.902-5.467h-5.568l-.902 5.467zM5.474 95.701c.29.736.54 1.486.753 2.248l-1.15.446A21.154 21.154 0 004.342 96l1.134-.3zm2.889-5.988v2.036h3.97v1.299H11.13v6.847H9.782v-6.841h-1.41v1.233c-.067 2.339-.58 4.189-1.556 5.581l-.99-1.039c.744-1.09 1.153-2.598 1.204-4.542V88.6a12.965 12.965 0 004.368-.776l.67 1.222c-1.2.38-2.446.605-3.705.668zM0 98.803c.552-.939.949-1.96 1.173-3.025l1.234.264a12.79 12.79 0 01-1.273 3.482L0 98.802zm6.437-10.075v1.254H.382v-1.26h2.277a7.832 7.832 0 00-.514-.899l1.423-.236c.162.341.303.721.463 1.14h2.406zm-.144 5.284l-.009 1.254H4.079v4.653H2.707v-4.662H.46v-1.245h2.247v-1.069H.25v-1.245h1.344a7.967 7.967 0 00-.541-1.198l1.203-.458c.221.544.41 1.101.566 1.668h1.164c.186-.54.358-1.09.502-1.668l1.227.434a9.686 9.686 0 01-.493 1.225h1.294v1.245H4.088v1.066h2.205zm18.918 3.251l-.009 1.156h-1.056v1.219h-1.203v-1.219h-4.735v-1.156h.963V93.89h-.845v-1.155h6.702v1.155h-.873v3.374h1.056zm-2.268 0v-.5h-2.56v.5h2.56zm0-1.407v-.524h-2.56v.524h2.56zm0-1.43v-.537h-2.56v.536h2.56zm-.683-2.258v-4.042h5.192v10.449c0 .841-.448 1.26-1.332 1.26-.422 0-.846-.027-1.255-.05l-.3-1.222c.358.049.72.075 1.082.078.29 0 .449-.17.449-.485v-5.988H22.26zm1.345-3.018l.009.497h2.473v-.497h-2.482zm0 1.416l.009.599h2.473v-.6h-2.482zm-2.247-2.44v4.03h-3.89v7.706h-1.371V88.126h5.26zm-1.345 3.033l-.012-.6h-2.533v.6h2.545zm0-1.512l-.012-.524h-2.533v.524h2.545zm11.572 1.281l.003-2.323h4.828a7.212 7.212 0 00-.33-.698l1.383-.236c.12.275.238.59.358.93h4.813v2.324h-1.293V89.68h-8.468v1.248h-1.294zm9.253.368l1.968-.003v1.078h-2.073l-.102 1.144h-7.52l.171-1.144H31.42v-1.075h2.018l.169-1.155h7.334l-.103 1.155zm-4.497 1.45l.078-.512h-1.886l-.09.512h1.898zm.196-1.273l.093-.527h-1.862l-.09.527h1.859zm2.918 1.27l.066-.512H37.62l-.079.512h1.914zm.156-1.276l.051-.524H37.83l-.093.524h1.874zm1.555 6.811l-1.251.015c.872.156 1.735.356 2.587.6l-.436 1.089a25.117 25.117 0 00-3.983-1.096l.3-.599h-2.637l.42.563c-.923.461-2.252.85-3.979 1.15l-.623-1.063a22.093 22.093 0 003.192-.647H33.08v-4.329l8.086-.015v4.332zm-6.798-3.544v.446h5.499v-.446h-5.5zm0 1.14v.434h5.502v-.434h-5.502zm0 1.59l5.499-.009v-.449h-5.5v.458zm17.712-5.727l-.701-1.063a8.107 8.107 0 003.083-2.866h1.095c.608 1.048 1.652 1.98 3.156 2.79l-.698 1.067c-.355-.195-.69-.39-.99-.6v.513h-4.06v-.407c-.285.205-.58.394-.885.566zm2.924-2.749a9.796 9.796 0 01-1.21 1.482h2.48a7.384 7.384 0 01-1.27-1.482zm-3.008 6.766v-3.53h2.875v3.53h-2.875zm1.804-2.523l-.764-.003v1.523h.764v-1.52zm1.453 2.518v-3.53h2.861v3.53h-2.86zm1.805-2.524l-.752.003v1.52h.752v-1.523zm-7.833 2.18c.16.799.292 1.667.412 2.61l-.713.174c-.093-1-.198-1.893-.334-2.653l.635-.132zm8.18.93c-.106.29-.2.566-.308.824a15.271 15.271 0 011.628 1.835l-.885.898a11.412 11.412 0 00-1.254-1.652 7.188 7.188 0 01-1.236 1.67l-.966-.853a7.089 7.089 0 001.868-3.18l1.152.458zm-11.05 2.617a26.48 26.48 0 00.337-3.557l.725.09a31.865 31.865 0 01-.283 3.704l-.779-.237zm7.698-1.928c.337.304.65.632.939.982l-.843.841a5.974 5.974 0 00-.58-.745 7.842 7.842 0 01-1.29 1.814l-.978-.853a7.24 7.24 0 001.868-3.234l1.149.458c-.093.264-.184.5-.265.737zm-4-3.237h1.512c.006 2.967-.126 4.701-.36 5.201-.235.5-.71.752-1.396.752-.199 0-.41-.027-.62-.027l-.265-1.102c.227.04.456.061.686.063a.76.76 0 00.815-.737c.012-.12.027-.26.051-.419l-.538.213a46.495 46.495 0 00-.427-2.312l.601-.17c.16.691.28 1.31.385 1.889.037-.551.037-1.294.037-2.192h-3.706v-6.802h4.707v1.167h-1.489v.809h1.122v1.054H50.05v.802h1.122v1.05h-1.119v.761zm-2.04-4.473v.806h.857v-.806h-.857zm0 1.866v.802h.857v-.802h-.857zm0 2.61l.857.003v-.763h-.857v.76zm-.358 1.773l.686-.078c.08.787.147 1.862.19 3.228l-.792.107a79.381 79.381 0 00-.084-3.257zm26.3 2.688l-.006 1.252-11.554.021v-1.275h5.077V97.05H63.45v-1.273h4.022v-1.012c-1.17.07-2.358.134-3.561.192l-.32-1.183a1.17 1.17 0 00.302-.12c.42-.197.947-.682 1.606-1.445h-1.805v-.6h-1.227v-2.808h4.948a8.976 8.976 0 00-.601-.958l1.555-.263c.186.365.37.772.544 1.218h4.973v2.809h-1.228v.599h-1.874c.849.667 1.64 1.404 2.365 2.203l-1.014 1.024a9.59 9.59 0 00-.767-.943c-.818.066-1.649.135-2.49.189v1.101h4.048v1.273h-4.049v1.197h5.078zM63.85 90.982h8.627v-.898H63.85v.898zm1.958 2.755a153.57 153.57 0 004.545-.276l-.791-.707.55-.538H67.08a12.74 12.74 0 01-1.272 1.52z"/></svg>