<svg xmlns="http://www.w3.org/2000/svg" width="35.832" height="35.873" viewBox="0 0 35.832 35.873"><g fill="#f7bf68"><path d="M25.967 35.373a.2.2 0 01-.178-.105c-1.015-2.158-4.777-2.883-6.585-3.231h-.016a489.7 489.7 0 00-3.715-.689l.943-5.542a.185.185 0 01.185-.163h5.18a9.369 9.369 0 006.972-3.021 13.273 13.273 0 003.3-7.643 9.56 9.56 0 00-2.308-7.653 11.435 11.435 0 00-8.454-3.586c-5.577 0-11.536 0-16.778-.012a.187.187 0 00-.187.187.193.193 0 00.006.048 39.645 39.645 0 001.99 5.728 5.8 5.8 0 004.891 3.328h-.005c-1.249 0-2.235.769-2.931 2.285a16.851 16.851 0 00-1.067 3.979c-.037.21-.072.407-.105.582-.352 1.849-1.265 6.835-1.777 9.643-2.439-.439-4.228-.76-4.665-.837a.2.2 0 01-.163-.2V.7A.2.2 0 01.7.5h34.428a.2.2 0 01.2.2v28.311a.2.2 0 01-.144.191 39.046 39.046 0 00-5.824 2.035 6.022 6.022 0 00-3.2 3.992.2.2 0 01-.1.118.205.205 0 01-.093.026z" stroke="transparent"/><path d="M26.759 15.291h-2.6l.432-2.577h1.614a.124.124 0 00.124-.1l.546-3.2a.127.127 0 00-.092-.154h-1.611l.367-2.265a.188.188 0 00-.152-.217.19.19 0 00-.033 0h-3.112a.191.191 0 00-.187.159l-.382 2.327h-2.624l.385-2.274a.187.187 0 00-.154-.215h-3.145a.188.188 0 00-.185.157l-.394 2.335h-3.19a.125.125 0 00-.124.124 3.322 3.322 0 002.748 3.271l-.44 2.64h-2.184a.125.125 0 00-.124.124 3.321 3.321 0 001.8 2.949l-.44 2.646a.191.191 0 00.161.217h3.14a.185.185 0 00.185-.157l.389-2.333h2.621l-.379 2.274a.189.189 0 00.156.217.184.184 0 00.029 0h3.112a.189.189 0 00.187-.157l.389-2.339h2.62a.126.126 0 00.124-.1l.546-3.2a.125.125 0 00-.1-.144zm-8.71 0l.424-2.577h2.622l-.432 2.577z"/></g></svg>