<svg xmlns="http://www.w3.org/2000/svg" width="27.283" height="27.314" viewBox="0 0 27.283 27.314"><g fill="#606060"><path d="M19.717 26.814a.153.153 0 01-.134-.079c-.766-1.628-3.6-2.175-4.969-2.438h-.012c-.5-.1-1.441-.271-2.8-.52l.711-4.182a.14.14 0 01.14-.123h3.909a7.069 7.069 0 005.261-2.279 10.015 10.015 0 002.491-5.767 7.213 7.213 0 00-1.741-5.774 8.629 8.629 0 00-6.379-2.706c-4.208 0-8.7 0-12.66-.009a.141.141 0 00-.141.141.146.146 0 000 .036 29.914 29.914 0 001.5 4.324 4.377 4.377 0 003.692 2.508h0a2.459 2.459 0 00-2.211 1.724 12.715 12.715 0 00-.8 3c-.028.158-.054.307-.08.439-.266 1.394-.955 5.156-1.342 7.275l-3.52-.632a.153.153 0 01-.131-.152V.653A.154.154 0 01.655.5H26.63a.154.154 0 01.153.153v21.36a.154.154 0 01-.109.144 29.463 29.463 0 00-4.395 1.536 4.544 4.544 0 00-2.416 3.012.153.153 0 01-.072.089.155.155 0 01-.074.02z" stroke="transparent"/><path d="M20.315 11.661h-1.963l.326-1.944h1.218a.094.094 0 00.094-.078l.412-2.414a.1.1 0 00-.069-.116h-1.217l.277-1.709a.142.142 0 00-.115-.164h-2.374a.144.144 0 00-.141.12l-.289 1.755h-1.98l.29-1.716a.141.141 0 00-.117-.162h-2.373a.142.142 0 00-.14.118l-.3 1.762H9.447a.094.094 0 00-.094.094 2.507 2.507 0 002.074 2.469l-.332 1.992H9.447a.094.094 0 00-.094.094 2.506 2.506 0 001.355 2.225l-.332 2a.144.144 0 00.121.164h2.369a.139.139 0 00.14-.118l.294-1.76h1.978l-.286 1.716a.143.143 0 00.118.164h2.371a.143.143 0 00.141-.118l.293-1.765h1.977a.1.1 0 00.094-.079l.412-2.415a.094.094 0 00-.075-.109zm-6.573 0l.32-1.944h1.979l-.326 1.944z"/></g></svg>