<svg xmlns="http://www.w3.org/2000/svg" width="31.486" height="30" viewBox="0 0 31.486 30"><path d="M31.483 12.775C31.483 5.731 24.421 0 15.74 0S0 5.731 0 12.775c0 6.315 5.6 11.6 13.166 12.6.513.11 1.21.338 1.387.776a3.232 3.232 0 01.051 1.424l-.224 1.348c-.068.4-.316 1.557 1.363.849s9.066-5.338 12.369-9.14a11.365 11.365 0 003.371-7.857zm-21.3 3.761a.306.306 0 01-.306.307H5.471a.3.3 0 01-.212-.086.305.305 0 01-.086-.212V9.678a.307.307 0 01.307-.307h1.1a.307.307 0 01.306.307v5.448h3a.306.306 0 01.306.307zm2.662 0a.306.306 0 01-.307.306h-1.1a.307.307 0 01-.307-.306V9.677a.307.307 0 01.307-.306h1.1a.306.306 0 01.307.306zm7.6 0a.306.306 0 01-.307.306h-1.1a.3.3 0 01-.078-.011l-.021-.007h-.009l-.015-.006-.015-.007h-.009l-.019-.011a.306.306 0 01-.078-.076l-3.147-4.251v4.064a.306.306 0 01-.307.306h-1.1a.307.307 0 01-.307-.306v-6.86a.307.307 0 01.307-.306h1.187l.018.006h.01l.017.008h.01l.016.009.009.006.016.011.008.006.016.014.006.005.018.019a.307.307 0 01.024.031l3.143 4.245V9.677a.307.307 0 01.307-.306h1.1a.306.306 0 01.307.306zm6.1-5.755a.306.306 0 01-.306.307h-3v1.159h3a.306.306 0 01.306.307v1.1a.306.306 0 01-.306.307h-3v1.159h3a.306.306 0 01.306.307v1.1a.306.306 0 01-.306.307h-4.408a.3.3 0 01-.212-.086.305.305 0 01-.086-.212V9.678a.3.3 0 01.085-.211v-.005a.3.3 0 01.212-.087h4.413a.306.306 0 01.306.307z" fill="#707070"/></svg>